<svg width="49" height="48" viewBox="0 0 49 48" fill="none" xmlns="http://www.w3.org/2000/svg">
<g id="Huge-icon/communication/outline/call-user">
<path id="Vector" d="M30.168 21V20C30.168 16.6863 32.8543 14 36.168 14M42.168 21V20C42.168 16.6863 39.4817 14 36.168 14M36.168 14C38.3771 14 40.168 12.2091 40.168 10C40.168 7.79086 38.3771 6 36.168 6C33.9588 6 32.168 7.79086 32.168 10C32.168 12.2091 33.9588 14 36.168 14ZM42.168 34.7081V38C42.168 40.2091 40.3771 42 38.168 42C20.4949 42 6.16797 27.6731 6.16797 10C6.16797 7.79086 7.95883 6 10.168 6H13.4598C15.0955 6 16.5663 6.99581 17.1737 8.51444L18.8011 12.5827C19.5737 14.5143 18.7367 16.7156 16.876 17.646L16.168 18C16.168 18 17.168 23 21.168 27C25.168 31 30.168 32 30.168 32L30.522 31.292C31.4523 29.4312 33.6537 28.5943 35.5853 29.3669L39.6535 30.9942C41.1722 31.6017 42.168 33.0725 42.168 34.7081Z" stroke="#28303F" stroke-width="3" stroke-linecap="round" stroke-linejoin="round"/>
</g>
</svg>
