<svg width="37" height="37" viewBox="0 0 37 37" fill="none" xmlns="http://www.w3.org/2000/svg">
<g id="Media / Social icon" clip-path="url(#clip0_234_918)">
<path id="Vector" d="M36.5 18.4609C36.5 8.51981 28.4411 0.460938 18.5 0.460938C8.55887 0.460938 0.5 8.51981 0.5 18.4609C0.5 27.4451 7.0823 34.8919 15.6875 36.2423V23.6641H11.1172V18.4609H15.6875V14.4953C15.6875 9.98406 18.3748 7.49219 22.4864 7.49219C24.4551 7.49219 26.5156 7.84375 26.5156 7.84375V12.2734H24.2459C22.01 12.2734 21.3125 13.6611 21.3125 15.0859V18.4609H26.3047L25.5066 23.6641H21.3125V36.2423C29.9177 34.8919 36.5 27.4451 36.5 18.4609Z" fill="white"/>
</g>
<defs>
<clipPath id="clip0_234_918">
<rect width="36" height="36" fill="white" transform="translate(0.5 0.460938)"/>
</clipPath>
</defs>
</svg>
