<svg width="32" height="33" viewBox="0 0 32 33" fill="none" xmlns="http://www.w3.org/2000/svg">
<path opacity="0.4" d="M3.33398 16.4611C3.33398 10.49 3.33398 7.50442 5.18897 5.64942C7.04397 3.79443 10.0295 3.79443 16.0007 3.79443C21.9717 3.79443 24.9573 3.79443 26.8124 5.64942C28.6673 7.50442 28.6673 10.49 28.6673 16.4611C28.6673 22.4322 28.6673 25.4178 26.8124 27.2728C24.9573 29.1278 21.9717 29.1278 16.0007 29.1278C10.0295 29.1278 7.04397 29.1278 5.18897 27.2728C3.33398 25.4178 3.33398 22.4322 3.33398 16.4611Z" fill="white"/>
<path d="M3.33398 16.4611C3.33398 10.49 3.33398 7.50442 5.18897 5.64942C7.04397 3.79443 10.0295 3.79443 16.0007 3.79443C21.9717 3.79443 24.9573 3.79443 26.8124 5.64942C28.6673 7.50442 28.6673 10.49 28.6673 16.4611C28.6673 22.4322 28.6673 25.4178 26.8124 27.2728C24.9573 29.1278 21.9717 29.1278 16.0007 29.1278C10.0295 29.1278 7.04397 29.1278 5.18897 27.2728C3.33398 25.4178 3.33398 22.4322 3.33398 16.4611Z" stroke="white" stroke-width="2.5" stroke-linejoin="round"/>
<path d="M22.5694 11.1626H18.6428C17.2511 11.1626 16.1199 12.2854 16.1096 13.6772L15.9959 29.0298M13.4434 19.1297H19.847" stroke="white" stroke-width="2.5" stroke-linecap="round" stroke-linejoin="round"/>
</svg>
