<svg width="49" height="48" viewBox="0 0 49 48" fill="none" xmlns="http://www.w3.org/2000/svg">
<path d="M34.166 40C36.3752 40 38.166 38.2091 38.166 36C38.166 33.7909 36.3752 32 34.166 32C31.9569 32 30.166 33.7909 30.166 36C30.166 38.2091 31.9569 40 34.166 40Z" stroke="#3C3628" stroke-width="3"/>
<path d="M14.166 40C16.3752 40 18.166 38.2091 18.166 36C18.166 33.7909 16.3752 32 14.166 32C11.9569 32 10.166 33.7909 10.166 36C10.166 38.2091 11.9569 40 14.166 40Z" stroke="#3C3628" stroke-width="3"/>
<path d="M10.166 35.9448C7.97258 35.8356 6.60422 35.5092 5.63048 34.5356C4.65674 33.5618 4.33046 32.1934 4.22112 30M18.166 36H30.166M38.166 35.9448C40.3594 35.8356 41.7278 35.5092 42.7016 34.5356C44.166 33.071 44.166 30.714 44.166 26V22H34.766C33.277 22 32.5324 22 31.93 21.8042C30.7122 21.4086 29.7574 20.4538 29.3618 19.2361C29.166 18.6335 29.166 17.889 29.166 16.4C29.166 14.1665 29.166 13.0497 28.8724 12.1459C28.2788 10.3193 26.8468 8.88716 25.0202 8.29366C24.1164 8 22.9996 8 20.766 8H4.16602" stroke="#3C3628" stroke-width="3" stroke-linecap="round" stroke-linejoin="round"/>
<path d="M29.166 12H32.8084C35.7192 12 37.1744 12 38.3588 12.7074C39.5432 13.4148 40.2332 14.6962 41.6132 17.259L44.166 22" stroke="#3C3628" stroke-width="3" stroke-linecap="round" stroke-linejoin="round"/>
<path d="M12.4623 15.0984L11.932 15.6287L11.4017 15.0984C9.93719 13.6339 7.56282 13.6339 6.09835 15.0983C4.63388 16.5628 4.63388 18.9372 6.09835 20.4017L9.81066 24.114C10.9822 25.2855 12.8817 25.2855 14.0533 24.114L17.7656 20.4016C19.2301 18.9372 19.2301 16.5628 17.7656 15.0983C16.3011 13.6339 13.9268 13.6339 12.4623 15.0984Z" stroke="#B1AFA9" stroke-width="3" stroke-linejoin="round"/>
</svg>
