<svg width="48" height="48" viewBox="0 0 48 48" fill="none" xmlns="http://www.w3.org/2000/svg">
<path d="M36 40C38.2091 40 40 38.2091 40 36C40 33.7909 38.2091 32 36 32C33.7909 32 32 33.7909 32 36C32 38.2091 33.7909 40 36 40Z" stroke="#3C3628" stroke-width="3"/>
<path d="M16 40C18.2091 40 20 38.2091 20 36C20 33.7909 18.2091 32 16 32C13.7909 32 12 33.7909 12 36C12 38.2091 13.7909 40 16 40Z" stroke="#3C3628" stroke-width="3"/>
<path d="M11.9998 35.9448C9.80633 35.8356 8.43798 35.5092 7.46424 34.5356C7.46492 33.5 7.13864 10.4253 7.0293 8.23186L22.5998 8C24.8334 8 25.9502 8 26.854 8.29366C28.6806 8.88716 30.1126 10.3193 30.7062 12.1459C30.9998 13.0497 30.9998 14.1665 30.9998 16.4C30.9998 17.889 30.9998 18.6335 31.1956 19.2361C31.5912 20.4538 32.546 21.4086 33.7638 21.8042C34.3662 22 35.1108 22 36.5998 22H45.9998V26C45.9998 30.714 45.9998 33.071 44.5354 34.5356C43.5616 35.5092 42.1932 35.8356 39.9998 35.9448M19.9998 36H31.9998" stroke="#3C3628" stroke-width="3" stroke-linecap="round" stroke-linejoin="round"/>
<path d="M31 12H34.6424C37.5532 12 39.0084 12 40.1928 12.7074C41.3772 13.4148 42.0672 14.6962 43.4472 17.259L46 22" stroke="#3C3628" stroke-width="3" stroke-linecap="round" stroke-linejoin="round"/>
<path d="M19.4623 16.0984L18.932 16.6287L18.4017 16.0984C16.9372 14.6339 14.5628 14.6339 13.0983 16.0983C11.6339 17.5628 11.6339 19.9372 13.0983 21.4017L16.8107 25.114C17.9822 26.2855 19.8817 26.2855 21.0533 25.114L24.7656 21.4016C26.2301 19.9372 26.2301 17.5628 24.7656 16.0983C23.3011 14.6339 20.9268 14.6339 19.4623 16.0984Z" stroke="#B1AFA9" stroke-width="3" stroke-linejoin="round"/>
</svg>
