<svg width="48" height="48" viewBox="0 0 48 48" fill="none" xmlns="http://www.w3.org/2000/svg">
<path d="M34 40C36.2091 40 38 38.2091 38 36C38 33.7909 36.2091 32 34 32C31.7909 32 30 33.7909 30 36C30 38.2091 31.7909 40 34 40Z" stroke="#3C3628" stroke-width="3"/>
<path d="M14 40C16.2091 40 18 38.2091 18 36C18 33.7909 16.2091 32 14 32C11.7909 32 10 33.7909 10 36C10 38.2091 11.7909 40 14 40Z" stroke="#3C3628" stroke-width="3"/>
<path d="M10.0005 35.9448C7.80711 35.8356 6.43875 35.5092 5.46501 34.5356C5.46421 32 5.57418 10.1934 5.46484 8H20.6006C22.8342 8 23.9509 8 24.8547 8.29366C26.6813 8.88716 28.1133 10.3193 28.7069 12.1459C29.0005 13.0497 29.0005 14.1665 29.0005 16.4C29.0005 17.889 29.0005 18.6335 29.1963 19.2361C29.5919 20.4538 30.5467 21.4086 31.7645 21.8042C32.3669 22 33.1115 22 34.6005 22H44.0005V26C44.0005 30.714 44.0005 33.071 42.5361 34.5356C41.5623 35.5092 40.1939 35.8356 38.0005 35.9448M18.0005 36H30.0005" stroke="#3C3628" stroke-width="3" stroke-linecap="round" stroke-linejoin="round"/>
<path d="M29 12H32.6424C35.5532 12 37.0084 12 38.1928 12.7074C39.3772 13.4148 40.0672 14.6962 41.4472 17.259L44 22" stroke="#3C3628" stroke-width="3" stroke-linecap="round" stroke-linejoin="round"/>
<path d="M17.459 15.8993L17 16.3334L16.541 15.8993C15.2734 14.7002 13.2183 14.7002 11.9507 15.8993C10.6831 17.0983 10.6831 19.0422 11.9507 20.2412L15.1639 23.2806C16.1779 24.2398 17.8221 24.2398 18.8361 23.2806L22.0493 20.2412C23.3169 19.0422 23.3169 17.0983 22.0493 15.8993C20.7817 14.7002 18.7266 14.7002 17.459 15.8993Z" stroke="#B1AFA9" stroke-width="3" stroke-linejoin="round"/>
</svg>
