<svg xmlns:xlink="http://www.w3.org/1999/xlink" xmlns="http://www.w3.org/2000/svg" widht="48" height="48" viewBox="0 0 48 48" width="48" ><defs><style>.cls-1,.cls-2,.cls-3{fill:none;stroke:#3c3628;}.cls-1,.cls-2{stroke-width:2.97px;}.cls-2,.cls-3{stroke-linecap:round;}.cls-2{stroke-linejoin:round;}.cls-3{stroke-width:2.48px;opacity:0.4;isolation:isolate;}</style></defs><g id="Layer_2" data-name="Layer 2"><g id="Layer_1-2" data-name="Layer 1"><path class="cls-1" d="M33,33.17a4,4,0,1,0-4-4A4,4,0,0,0,33,33.17Z"/><path class="cls-1" d="M13.15,33.17a4,4,0,1,0-4-4A4,4,0,0,0,13.15,33.17Z"/><path class="cls-2" d="M9.19,29.11C7,29,5.63,28.72,4.74,27.73s-1.29-2.28-1.39-4.46m13.76,5.94H29m7.92-.1c2.18-.1,3.56-.39,4.45-1.38,1.49-1.39,1.49-3.77,1.49-8.42v-4H33.55a9.27,9.27,0,0,1-2.77-.2,4.19,4.19,0,0,1-2.58-2.57A9.82,9.82,0,0,1,28,9.8a14.82,14.82,0,0,0-.3-4.25,6,6,0,0,0-3.86-3.87,21.47,21.47,0,0,0-4.16-.19H3.25"/><path class="cls-3" d="M3,8.12a3.66,3.66,0,0,1,4.26,0c.4.3.6.4.69.4s.3-.1.7-.4a3.66,3.66,0,0,1,4.26,0c2.37,1.39,2.87,6.14-2.58,10.1a3.65,3.65,0,0,1-2.47,1.09c-.9,0-1.39-.4-2.48-1.09C.08,14.16.58,9.51,3,8.12Z"/><path class="cls-2" d="M28,5.45h3.56c2.87,0,4.36,0,5.55.69s1.88,2,3.26,4.55l2.48,4.66"/></g></g></svg>