<svg width="97" height="96" viewBox="0 0 97 96" fill="none" xmlns="http://www.w3.org/2000/svg">
<path d="M58 64C60.2091 64 62 62.2091 62 60C62 57.7909 60.2091 56 58 56C55.7909 56 54 57.7909 54 60C54 62.2091 55.7909 64 58 64Z" stroke="#3C3628" stroke-width="3"/>
<path d="M38 64C40.2091 64 42 62.2091 42 60C42 57.7909 40.2091 56 38 56C35.7909 56 34 57.7909 34 60C34 62.2091 35.7909 64 38 64Z" stroke="#3C3628" stroke-width="3"/>
<path d="M34 59.9448C31.8066 59.8356 30.4382 59.5092 29.4645 58.5356C28.4907 57.5618 28.1644 56.1934 28.0551 54M42 60H54M62 59.9448C64.1934 59.8356 65.5618 59.5092 66.5356 58.5356C68 57.071 68 54.714 68 50V46H58.6C57.111 46 56.3664 46 55.764 45.8042C54.5462 45.4086 53.5914 44.4538 53.1958 43.2361C53 42.6335 53 41.889 53 40.4C53 38.1665 53 37.0497 52.7064 36.1459C52.1128 34.3193 50.6808 32.8872 48.8542 32.2937C47.9504 32 46.8336 32 44.6 32H28" stroke="#3C3628" stroke-width="3" stroke-linecap="round" stroke-linejoin="round"/>
<path opacity="0.4" d="M27.7127 38.6627C29.5229 37.5662 31.1027 38.0081 32.0518 38.712C32.441 39.0006 32.6356 39.1449 32.75 39.1449C32.8645 39.1449 33.059 39.0006 33.4483 38.712C34.3973 38.0081 35.9771 37.5662 37.7873 38.6627C40.1629 40.1019 40.7003 44.8499 35.2208 48.8555C34.1771 49.6185 33.6553 50 32.75 50C31.8448 50 31.3229 49.6185 30.2792 48.8555C24.7997 44.8499 25.3372 40.1019 27.7127 38.6627Z" stroke="#3C3628" stroke-width="2.5" stroke-linecap="round"/>
<path d="M53 36H56.6424C59.5532 36 61.0084 36 62.1928 36.7074C63.3772 37.4148 64.0672 38.6962 65.4472 41.259L68 46" stroke="#3C3628" stroke-width="3" stroke-linecap="round" stroke-linejoin="round"/>
</svg>
