<?xml version="1.0" encoding="utf-8"?>
<!-- Generator: Adobe Illustrator 24.2.0, SVG Export Plug-In . SVG Version: 6.00 Build 0)  -->
<svg version="1.1" id="Layer_1" xmlns="http://www.w3.org/2000/svg" xmlns:xlink="http://www.w3.org/1999/xlink" x="0px" y="0px"
	 viewBox="0 0 48 48" style="enable-background:new 0 0 48 48;" xml:space="preserve">
<style type="text/css">
	.st0{fill:none;stroke:#3C3628;stroke-width:3;}
	.st1{fill:none;stroke:#3C3628;stroke-width:3;stroke-linecap:round;stroke-linejoin:round;}
	.st2{opacity:0.4;fill:none;stroke:#3C3628;stroke-width:2.5;stroke-linecap:round;enable-background:new    ;}
</style>
<g>
	<path class="st0" d="M35,40c2.2,0,4-1.8,4-4s-1.8-4-4-4c-2.2,0-4,1.8-4,4S32.8,40,35,40z"/>
	<path class="st0" d="M15,40c2.2,0,4-1.8,4-4s-1.8-4-4-4s-4,1.8-4,4S12.8,40,15,40z"/>
	<path class="st1" d="M11,35.9c-2.2-0.1-3.6-0.4-4.5-1.4c-1-1-1.3-2.3-1.4-4.5 M19,36h12 M39,35.9c2.2-0.1,3.6-0.4,4.5-1.4
		C45,33.1,45,30.7,45,26v-4h-9.4c-1.5,0-2.2,0-2.8-0.2c-1.2-0.4-2.2-1.4-2.6-2.6C30,18.6,30,17.9,30,16.4c0-2.2,0-3.4-0.3-4.3
		c-0.6-1.8-2-3.3-3.9-3.9C25,8,23.8,8,21.6,8H5"/>
	<path class="st2" d="M4.7,14.7c1.8-1.1,3.4-0.7,4.3,0c0.4,0.3,0.6,0.4,0.7,0.4c0.1,0,0.3-0.1,0.7-0.4c0.9-0.7,2.5-1.1,4.3,0
		c2.4,1.4,2.9,6.2-2.6,10.2c-1,0.8-1.6,1.1-2.5,1.1c-0.9,0-1.4-0.4-2.5-1.1C1.8,20.8,2.3,16.1,4.7,14.7z"/>
	<path class="st1" d="M30,12h3.6c2.9,0,4.4,0,5.6,0.7c1.2,0.7,1.9,2,3.3,4.6L45,22"/>
</g>
</svg>
