<svg id="Layer_1" data-name="Layer 1" xmlns="http://www.w3.org/2000/svg" viewBox="0 0 44.75 35"><defs><style>.cls-1,.cls-2,.cls-3{fill:none;stroke:#3d3729;}.cls-1,.cls-2{stroke-width:3px;}.cls-2,.cls-3{stroke-linecap:round;}.cls-2{stroke-linejoin:round;}.cls-3{stroke-width:2.5px;opacity:0.4;isolation:isolate;}</style></defs><path class="cls-1" d="M35,40a4,4,0,1,0-4-4A4,4,0,0,0,35,40Z" transform="translate(-1.75 -6.5)"/><path class="cls-1" d="M15,40a4,4,0,1,0-4-4A4,4,0,0,0,15,40Z" transform="translate(-1.75 -6.5)"/><path class="cls-2" d="M11,35.94c-2.19-.1-3.56-.43-4.54-1.4S5.16,32.19,5.06,30M19,36H31m8-.06c2.19-.1,3.56-.43,4.54-1.4C45,33.07,45,30.71,45,26V22H35.6a9.86,9.86,0,0,1-2.84-.2,4,4,0,0,1-2.56-2.56A9.86,9.86,0,0,1,30,16.4a15.16,15.16,0,0,0-.29-4.25,6,6,0,0,0-3.86-3.86A15.16,15.16,0,0,0,21.6,8H5" transform="translate(-1.75 -6.5)"/><path class="cls-3" d="M4.71,14.66a3.77,3.77,0,0,1,4.34.05c.39.29.59.43.7.43s.31-.14.7-.43a3.77,3.77,0,0,1,4.34-.05c2.37,1.44,2.91,6.19-2.57,10.2A4,4,0,0,1,9.75,26a4,4,0,0,1-2.47-1.14C1.8,20.85,2.34,16.1,4.71,14.66Z" transform="translate(-1.75 -6.5)"/><path class="cls-2" d="M30,12h3.64c2.91,0,4.37,0,5.55.71s1.88,2,3.26,4.55L45,22" transform="translate(-1.75 -6.5)"/></svg>