<svg width="46" height="36" viewBox="0 0 46 36" fill="none" xmlns="http://www.w3.org/2000/svg">
<path d="M34.166 34C36.3752 34 38.166 32.2091 38.166 30C38.166 27.7909 36.3752 26 34.166 26C31.9569 26 30.166 27.7909 30.166 30C30.166 32.2091 31.9569 34 34.166 34Z" stroke="#3C3628" stroke-width="3"/>
<path d="M14.166 34C16.3752 34 18.166 32.2091 18.166 30C18.166 27.7909 16.3752 26 14.166 26C11.9569 26 10.166 27.7909 10.166 30C10.166 32.2091 11.9569 34 14.166 34Z" stroke="#3C3628" stroke-width="3"/>
<path d="M10.166 29.9448C7.97258 29.8356 6.60422 29.5092 5.63048 28.5356C4.65674 27.5618 4.33046 26.1934 4.22112 24M18.166 30H30.166M38.166 29.9448C40.3594 29.8356 41.7278 29.5092 42.7016 28.5356C44.166 27.071 44.166 24.714 44.166 20V16H34.766C33.277 16 32.5324 16 31.93 15.8042C30.7122 15.4086 29.7574 14.4538 29.3618 13.2361C29.166 12.6335 29.166 11.889 29.166 10.4C29.166 8.16646 29.166 7.0497 28.8724 6.1459C28.2788 4.31928 26.8468 2.88716 25.0202 2.29366C24.1164 2 22.9996 2 20.766 2H4.16602" stroke="#3C3628" stroke-width="3" stroke-linecap="round" stroke-linejoin="round"/>
<path opacity="0.4" d="M3.87874 8.66268C5.68894 7.56618 7.26874 8.00808 8.21779 8.71203C8.60704 9.00063 8.80159 9.14493 8.91604 9.14493C9.0305 9.14493 9.22505 9.00063 9.6143 8.71203C10.5633 8.00808 12.1432 7.56618 13.9534 8.66268C16.3289 10.1019 16.8664 14.8499 11.3868 18.8555C10.3431 19.6185 9.8213 20 8.91604 20C8.01079 20 7.48894 19.6185 6.44524 18.8555C0.965732 14.8499 1.50318 10.1019 3.87874 8.66268Z" stroke="#3C3628" stroke-width="2.5" stroke-linecap="round"/>
<path d="M29.166 6H32.8084C35.7192 6 37.1744 6 38.3588 6.70742C39.5432 7.41484 40.2332 8.69622 41.6132 11.259L44.166 16" stroke="#3C3628" stroke-width="3" stroke-linecap="round" stroke-linejoin="round"/>
</svg>
