<svg width="49" height="48" viewBox="0 0 49 48" fill="none" xmlns="http://www.w3.org/2000/svg">
<path d="M39.166 35C39.166 37.7614 36.9274 40 34.166 40C31.4046 40 29.166 37.7614 29.166 35C29.166 32.2386 31.4046 30 34.166 30C36.9274 30 39.166 32.2386 39.166 35Z" stroke="#3C3628" stroke-width="3"/>
<path d="M19.166 35C19.166 37.7614 16.9274 40 14.166 40C11.4046 40 9.16602 37.7614 9.16602 35C9.16602 32.2386 11.4046 30 14.166 30C16.9274 30 19.166 32.2386 19.166 35Z" stroke="#3C3628" stroke-width="3"/>
<path opacity="0.4" d="M29.166 35H19.166M30.166 31V14C30.166 11.1716 30.166 9.75736 29.2874 8.87868C28.4086 8 26.9944 8 24.166 8H10.166C7.3376 8 5.92338 8 5.0447 8.87868C4.16602 9.75736 4.16602 11.1716 4.16602 14V30C4.16602 31.8692 4.16602 32.8038 4.56794 33.5C4.83124 33.956 5.20996 34.3348 5.66602 34.598C6.36218 35 7.29678 35 9.16602 35M31.166 13H34.7688C36.4282 13 37.2578 13 37.9456 13.3894C38.6332 13.7788 39.0602 14.4902 39.9138 15.913L43.311 21.575C43.7358 22.283 43.9482 22.6372 44.0572 23.0302C44.166 23.4232 44.166 23.836 44.166 24.662V30C44.166 31.8692 44.166 32.8038 43.764 33.5C43.5008 33.956 43.122 34.3348 42.666 34.598C41.9698 35 41.0352 35 39.166 35" stroke="#3C3628" stroke-width="3" stroke-linecap="round" stroke-linejoin="round"/>
<path d="M13.166 14V21.9996M21.166 14V21.9996" stroke="#3C3628" stroke-width="3" stroke-linecap="round" stroke-linejoin="round"/>
</svg>
