<svg width="48" height="48" viewBox="0 0 48 48" fill="none" xmlns="http://www.w3.org/2000/svg">
<path d="M35.5 39C37.433 39 39 37.433 39 35.5C39 33.567 37.433 32 35.5 32C33.567 32 32 33.567 32 35.5C32 37.433 33.567 39 35.5 39Z" stroke="#3C3628" stroke-width="3"/>
<path d="M16.5 39C18.433 39 20 37.433 20 35.5C20 33.567 18.433 32 16.5 32C14.567 32 13 33.567 13 35.5C13 37.433 14.567 39 16.5 39Z" stroke="#3C3628" stroke-width="3"/>
<path d="M12.7191 34.9487C10.6366 34.8473 9.33745 34.5443 8.41295 33.6402C8.41359 32.6786 8.10381 11.252 8 9.2153L15.3916 9.10765L22.7832 9C24.9039 9 25.9642 9 26.8223 9.27268C28.5565 9.82379 29.9161 11.1536 30.4797 12.8498C30.7585 13.689 30.7585 14.726 30.7585 16.8C30.7585 18.1827 30.7585 18.874 30.9444 19.4335C31.32 20.5642 32.2265 21.4508 33.3827 21.8182C33.9546 22 34.6616 22 36.0753 22H45V25.7143C45 30.0916 45 32.2802 43.6096 33.6402C42.6851 34.5443 41.3859 34.8473 39.3034 34.9487M20.3147 35H31.7079" stroke="#3C3628" stroke-width="3" stroke-linecap="round" stroke-linejoin="round"/>
<path d="M31 13H34.3996C37.1163 13 38.4745 13 39.5799 13.6367C40.6854 14.2734 41.3294 15.4266 42.6174 17.7331L45 22" stroke="#3C3628" stroke-width="3" stroke-linecap="round" stroke-linejoin="round"/>
<path d="M19.9208 18.8993L19.5 19.3334L19.0792 18.8993C17.9173 17.7002 16.0334 17.7002 14.8715 18.8993C13.7095 20.0983 13.7095 22.0422 14.8715 23.2412L17.8169 26.2806C18.7464 27.2398 20.2536 27.2398 21.1831 26.2806L24.1285 23.2412C25.2905 22.0422 25.2905 20.0983 24.1285 18.8993C22.9666 17.7002 21.0827 17.7002 19.9208 18.8993Z" stroke="#B1AFA9" stroke-width="3" stroke-linejoin="round"/>
</svg>
