<svg width="46" height="36" viewBox="0 0 46 36" fill="none" xmlns="http://www.w3.org/2000/svg">
<path d="M34 34C36.2091 34 38 32.2091 38 30C38 27.7909 36.2091 26 34 26C31.7909 26 30 27.7909 30 30C30 32.2091 31.7909 34 34 34Z" stroke="#3C3628" stroke-width="3"/>
<path d="M14 34C16.2091 34 18 32.2091 18 30C18 27.7909 16.2091 26 14 26C11.7909 26 10 27.7909 10 30C10 32.2091 11.7909 34 14 34Z" stroke="#3C3628" stroke-width="3"/>
<path d="M10 29.9448C7.80656 29.8356 6.4382 29.5092 5.46446 28.5356C4.49072 27.5618 4.16444 26.1934 4.0551 24M18 30H30M38 29.9448C40.1934 29.8356 41.5618 29.5092 42.5356 28.5356C44 27.071 44 24.714 44 20V16H34.6C33.111 16 32.3664 16 31.764 15.8042C30.5462 15.4086 29.5914 14.4538 29.1958 13.2361C29 12.6335 29 11.889 29 10.4C29 8.16646 29 7.0497 28.7064 6.1459C28.1128 4.31928 26.6808 2.88716 24.8542 2.29366C23.9504 2 22.8336 2 20.6 2H4" stroke="#3C3628" stroke-width="3" stroke-linecap="round" stroke-linejoin="round"/>
<path opacity="0.4" d="M3.71272 8.66268C5.52292 7.56618 7.10273 8.00808 8.05178 8.71203C8.44103 9.00063 8.63558 9.14493 8.75003 9.14493C8.86448 9.14493 9.05903 9.00063 9.44828 8.71203C10.3973 8.00808 11.9771 7.56618 13.7873 8.66268C16.1629 10.1019 16.7003 14.8499 11.2208 18.8555C10.1771 19.6185 9.65528 20 8.75003 20C7.84478 20 7.32293 19.6185 6.27923 18.8555C0.799717 14.8499 1.33717 10.1019 3.71272 8.66268Z" stroke="#3C3628" stroke-width="2.5" stroke-linecap="round"/>
<path d="M29 6H32.6424C35.5532 6 37.0084 6 38.1928 6.70742C39.3772 7.41484 40.0672 8.69622 41.4472 11.259L44 16" stroke="#3C3628" stroke-width="3" stroke-linecap="round" stroke-linejoin="round"/>
</svg>
