<svg width="49" height="48" viewBox="0 0 49 48" fill="none" xmlns="http://www.w3.org/2000/svg">
<g id="huge-icon/shipping and delivery/outline/fast delivery">
<path id="Vector" d="M28.666 38V14M28.666 38H32.666M28.666 38H18.666M28.666 14C28.666 9.58172 25.0843 6 20.666 6H12.666C8.24774 6 4.66602 9.58172 4.66602 14V30C4.66602 33.7304 7.21935 36.8645 10.6737 37.7499M28.666 14H35.0842C36.1005 14 37.0786 14.3868 37.82 15.0819L43.4018 20.3148C44.2084 21.071 44.666 22.1273 44.666 23.2329V34C44.666 36.2091 42.8752 38 40.666 38M40.666 38C40.666 40.2091 38.8752 42 36.666 42C34.4569 42 32.666 40.2091 32.666 38M40.666 38C40.666 35.7909 38.8752 34 36.666 34C34.4569 34 32.666 35.7909 32.666 38M18.666 38C18.666 40.2091 16.8752 42 14.666 42C12.4569 42 10.666 40.2091 10.666 38C10.666 37.916 10.6686 37.8326 10.6737 37.7499M18.666 38C18.666 35.7909 16.8752 34 14.666 34C12.5409 34 10.8028 35.6573 10.6737 37.7499" stroke="#28303F" stroke-width="3"/>
<path id="Vector 1980" d="M20.666 16H16.666" stroke="#28303F" stroke-width="3" stroke-linecap="round" stroke-linejoin="round"/>
<path id="Vector 1981" d="M20.666 24H12.666" stroke="#28303F" stroke-width="3" stroke-linecap="round" stroke-linejoin="round"/>
</g>
</svg>
