<svg width="48" height="48" viewBox="0 0 48 48" fill="none" xmlns="http://www.w3.org/2000/svg">
<path d="M35.5 39C37.433 39 39 37.433 39 35.5C39 33.567 37.433 32 35.5 32C33.567 32 32 33.567 32 35.5C32 37.433 33.567 39 35.5 39Z" stroke="#3C3628" stroke-width="3"/>
<path d="M15.5 39C17.433 39 19 37.433 19 35.5C19 33.567 17.433 32 15.5 32C13.567 32 12 33.567 12 35.5C12 37.433 13.567 39 15.5 39Z" stroke="#3C3628" stroke-width="3"/>
<path d="M11.8467 34.9487C9.70787 34.8473 8.3736 34.5443 7.42411 33.6402C7.42477 32.6786 7.10662 11.252 7 9.2153L22.1827 9C24.3607 9 25.4497 9 26.331 9.27269C28.1121 9.82379 29.5084 11.1536 30.0873 12.8498C30.3736 13.689 30.3736 14.726 30.3736 16.8C30.3736 18.1827 30.3736 18.874 30.5645 19.4335C30.9502 20.5642 31.8812 21.4508 33.0687 21.8182C33.6561 22 34.3822 22 35.8341 22H45V25.7143C45 30.0916 45 32.2802 43.5721 33.6402C42.6225 34.5443 41.2882 34.8473 39.1494 34.9487M19.6475 35H31.3486" stroke="#3C3628" stroke-width="3" stroke-linecap="round" stroke-linejoin="round"/>
<path d="M30 12H33.6424C36.5532 12 38.0084 12 39.1928 12.7074C40.3772 13.4148 41.0672 14.6962 42.4472 17.259L45 22" stroke="#3C3628" stroke-width="3" stroke-linecap="round" stroke-linejoin="round"/>
<path d="M19.9208 18.8993L19.5 19.3334L19.0792 18.8993C17.9173 17.7002 16.0334 17.7002 14.8715 18.8993C13.7095 20.0983 13.7095 22.0422 14.8715 23.2412L17.8169 26.2806C18.7464 27.2398 20.2536 27.2398 21.1831 26.2806L24.1285 23.2412C25.2905 22.0422 25.2905 20.0983 24.1285 18.8993C22.9666 17.7002 21.0827 17.7002 19.9208 18.8993Z" stroke="#B1AFA9" stroke-width="3" stroke-linejoin="round"/>
</svg>
