<svg width="48" height="48" viewBox="0 0 48 48" fill="none" xmlns="http://www.w3.org/2000/svg">
<path d="M34 40C36.2091 40 38 38.2091 38 36C38 33.7909 36.2091 32 34 32C31.7909 32 30 33.7909 30 36C30 38.2091 31.7909 40 34 40Z" stroke="#3C3628" stroke-width="3"/>
<path d="M14 40C16.2091 40 18 38.2091 18 36C18 33.7909 16.2091 32 14 32C11.7909 32 10 33.7909 10 36C10 38.2091 11.7909 40 14 40Z" stroke="#3C3628" stroke-width="3"/>
<path d="M9.99959 35.9448C7.80615 35.8356 6.43779 35.5092 5.46405 34.5356C4.49031 33.5618 4.16403 32.1934 4.05469 30M17.9996 36H29.9996M37.9996 35.9448C40.193 35.8356 41.5614 35.5092 42.5352 34.5356C43.9996 33.071 43.9996 30.714 43.9996 26V22H34.5996C33.1106 22 32.366 22 31.7636 21.8042C30.5458 21.4086 29.591 20.4538 29.1954 19.2361C28.9996 18.6335 28.9996 17.889 28.9996 16.4C28.9996 14.1665 28.9996 13.0497 28.706 12.1459C28.1124 10.3193 26.6804 8.88716 24.8538 8.29366C23.95 8 22.8332 8 20.5996 8H5.46405" stroke="#3C3628" stroke-width="3" stroke-linecap="round" stroke-linejoin="round"/>
<path d="M29 12H32.6424C35.5532 12 37.0084 12 38.1928 12.7074C39.3772 13.4148 40.0672 14.6962 41.4472 17.259L44 22" stroke="#3C3628" stroke-width="3" stroke-linecap="round" stroke-linejoin="round"/>
<path d="M17.4623 17.0984L16.932 17.6287L16.4017 17.0984C14.9372 15.6339 12.5628 15.6339 11.0983 17.0983C9.63388 18.5628 9.63388 20.9372 11.0983 22.4017L14.8107 26.114C15.9822 27.2855 17.8817 27.2855 19.0533 26.114L22.7656 22.4016C24.2301 20.9372 24.2301 18.5628 22.7656 17.0983C21.3011 15.6339 18.9268 15.6339 17.4623 17.0984Z" stroke="#B1AFA9" stroke-width="3" stroke-linejoin="round"/>
</svg>
