<svg width="49" height="48" viewBox="0 0 49 48" fill="none" xmlns="http://www.w3.org/2000/svg">
<path d="M34.166 40C36.3752 40 38.166 38.2091 38.166 36C38.166 33.7909 36.3752 32 34.166 32C31.9569 32 30.166 33.7909 30.166 36C30.166 38.2091 31.9569 40 34.166 40Z" stroke="#3C3628" stroke-width="3"/>
<path d="M14.166 40C16.3752 40 18.166 38.2091 18.166 36C18.166 33.7909 16.3752 32 14.166 32C11.9569 32 10.166 33.7909 10.166 36C10.166 38.2091 11.9569 40 14.166 40Z" stroke="#3C3628" stroke-width="3"/>
<path d="M10 35.9468C7.80656 35.8415 6.4382 35.5267 5.46446 34.5879C4.49072 33.6489 4.16444 32.3294 4.0551 30.2143M18 36H30M38 35.9468C40.1934 35.8415 41.5618 35.5267 42.5356 34.5879C44 33.1756 44 30.9028 44 26.3571V22.5H34.6C33.111 22.5 32.3664 22.5 31.764 22.3112C30.5462 21.9297 29.5914 21.009 29.1958 19.8348C29 19.2538 29 18.5358 29 17.1C29 14.9462 29 13.8694 28.7064 12.9978C28.1128 11.2364 26.6808 9.85548 24.8542 9.28317C23.9504 9 22.8336 9 20.6 9H4" stroke="#3C3628" stroke-width="3" stroke-linecap="round" stroke-linejoin="round"/>
<path d="M29.166 12H32.8084C35.7192 12 37.1744 12 38.3588 12.7074C39.5432 13.4148 40.2332 14.6962 41.6132 17.259L44.166 22" stroke="#3C3628" stroke-width="3" stroke-linecap="round" stroke-linejoin="round"/>
<path d="M12.4623 17.0984L11.932 17.6287L11.4017 17.0984C9.93719 15.6339 7.56282 15.6339 6.09835 17.0983C4.63388 18.5628 4.63388 20.9372 6.09835 22.4017L9.81066 26.114C10.9822 27.2855 12.8817 27.2855 14.0533 26.114L17.7656 22.4016C19.2301 20.9372 19.2301 18.5628 17.7656 17.0983C16.3011 15.6339 13.9268 15.6339 12.4623 17.0984Z" stroke="#B1AFA9" stroke-width="3" stroke-linejoin="round"/>
</svg>
