<svg width="121" height="79" viewBox="0 0 121 79" fill="none" xmlns="http://www.w3.org/2000/svg">
<g id="Group 3">
<g id="Group 2">
<g id="Group">
<g id="Group_2">
<path id="Vector" d="M54.7754 78.4611V75.6849C59.2767 75.6849 63.5873 72.0202 66.9132 65.3682C70.3928 58.4091 72.3085 49.1271 72.3085 39.2306C72.3085 29.3341 70.3928 20.0502 66.9132 13.0929C63.5873 6.44095 59.2767 2.77627 54.7754 2.77627V0C60.3835 0 65.5751 4.20883 69.3971 11.851C73.0655 19.1877 75.0866 28.9121 75.0866 39.2306C75.0866 49.5491 73.0655 59.2734 69.3971 66.6102C65.5751 74.2523 60.3835 78.4611 54.7754 78.4611Z" fill="#FFB800"/>
</g>
<g id="Group_3">
<path id="Vector_2" d="M66.1289 78.4611V75.6849C70.6302 75.6849 74.9408 72.0202 78.2668 65.3682C81.7464 58.4091 83.662 49.1271 83.662 39.2306C83.662 29.3341 81.7464 20.0502 78.2668 13.0929C74.9408 6.44095 70.6302 2.77627 66.1289 2.77627V0C71.737 0 76.9286 4.20883 80.7506 11.851C84.419 19.1877 86.4401 28.9121 86.4401 39.2306C86.4401 49.5491 84.419 59.2734 80.7506 66.6102C76.9286 74.2523 71.737 78.4611 66.1289 78.4611Z" fill="#FFB800"/>
</g>
<g id="Group_4">
<path id="Vector_3" d="M77.4824 78.4611V75.6849C81.9837 75.6849 86.2943 72.0202 89.6203 65.3682C93.0999 58.4091 95.0155 49.1271 95.0155 39.2306C95.0155 29.3341 93.0999 20.0502 89.6203 13.0929C86.2943 6.44095 81.9837 2.77627 77.4824 2.77627V0C83.0905 0 88.2821 4.20883 92.1041 11.851C95.7725 19.1877 97.7936 28.9121 97.7936 39.2306C97.7936 49.5491 95.7725 59.2734 92.1023 66.6102C88.2821 74.2523 83.0886 78.4611 77.4824 78.4611Z" fill="#FFB800"/>
</g>
<g id="Group_5">
<path id="Vector_4" d="M88.834 78.4611V75.6849C93.3352 75.6849 97.6459 72.0202 100.972 65.3682C104.451 58.4091 106.367 49.1271 106.367 39.2306C106.367 29.3341 104.451 20.0502 100.972 13.0929C97.6459 6.44095 93.3352 2.77627 88.834 2.77627V0C94.4421 0 99.6337 4.20883 103.456 11.851C107.124 19.1877 109.145 28.9121 109.145 39.2306C109.145 49.5491 107.124 59.2734 103.456 66.6102C99.6337 74.2523 94.4402 78.4611 88.834 78.4611Z" fill="#FFB800"/>
</g>
<g id="Group_6">
<path id="Vector_5" d="M100.188 78.4611V75.6849C104.689 75.6849 108.999 72.0202 112.325 65.3682C115.805 58.4091 117.721 49.1271 117.721 39.2306C117.721 29.3341 115.805 20.0502 112.325 13.0929C108.999 6.44095 104.689 2.77627 100.188 2.77627V0C105.796 0 110.987 4.20883 114.809 11.851C118.478 19.1877 120.499 28.9121 120.499 39.2306C120.499 49.5491 118.478 59.2734 114.809 66.6102C110.987 74.2523 105.794 78.4611 100.188 78.4611Z" fill="#FFB800"/>
</g>
</g>
<g id="Group_7">
<g id="Group_8">
<path id="Vector_6" d="M66.1289 78.3686C60.5579 78.3686 55.3959 74.1783 51.5905 66.5676C47.9277 59.2438 45.9121 49.5343 45.9121 39.2287C45.9121 28.9232 47.9295 19.2137 51.5905 11.8899C55.3959 4.28104 60.5579 0.0888672 66.1289 0.0888672V2.68005C61.5906 2.68005 57.2504 6.36139 53.9078 13.0485C50.4226 20.0206 48.5033 29.3175 48.5033 39.2287C48.5033 49.14 50.4226 58.4369 53.9078 65.409C57.2504 72.0943 61.5906 75.7774 66.1289 75.7774V78.3686Z" fill="#9C7623"/>
</g>
<g id="Group_9">
<path id="Vector_7" d="M54.7754 78.3685C49.2044 78.3685 44.0424 74.1782 40.237 66.5675C36.576 59.2455 34.5586 49.536 34.5586 39.2304C34.5586 28.9249 36.576 19.2154 40.237 11.8916C44.0424 4.28274 49.2044 0.0905762 54.7754 0.0905762V2.68176C50.2371 2.68176 45.8969 6.3631 42.5543 13.0502C39.0691 20.0224 37.1498 29.3192 37.1498 39.2304C37.1498 49.1417 39.0691 58.4385 42.5543 65.4107C45.8969 72.096 50.2371 75.7791 54.7754 75.7791V78.3685Z" fill="#9C7623"/>
</g>
<g id="Group_10">
<path id="Vector_8" d="M43.4219 78.3686C37.8508 78.3686 32.6888 74.1783 28.8835 66.5676C25.2207 59.2438 23.2051 49.5343 23.2051 39.2287C23.2051 28.9232 25.2225 19.2137 28.8835 11.8899C32.6888 4.28104 37.8508 0.0888672 43.4219 0.0888672V2.68005C38.8836 2.68005 34.5434 6.36139 31.2007 13.0485C27.7156 20.0206 25.7963 29.3175 25.7963 39.2287C25.7963 49.14 27.7156 58.4369 31.2007 65.409C34.5434 72.0943 38.8836 75.7774 43.4219 75.7774V78.3686Z" fill="#9C7623"/>
</g>
<g id="Group_11">
<path id="Vector_9" d="M32.0703 78.3686C26.4993 78.3686 21.3373 74.1783 17.5319 66.5676C13.8691 59.2438 11.8535 49.5343 11.8535 39.2287C11.8535 28.9232 13.8709 19.2137 17.5319 11.8899C21.3373 4.28104 26.4993 0.0888672 32.0703 0.0888672V2.68005C27.5321 2.68005 23.1918 6.36139 19.8492 13.0485C16.364 20.0206 14.4447 29.3175 14.4447 39.2287C14.4447 49.14 16.364 58.4369 19.8492 65.409C23.1918 72.0943 27.5321 75.7774 32.0703 75.7774V78.3686Z" fill="#9C7623"/>
</g>
<g id="Group_12">
<path id="Vector_10" d="M20.7168 78.3686C15.1458 78.3686 9.98375 74.1783 6.17841 66.5676C2.51558 59.2438 0.5 49.5343 0.5 39.2287C0.5 28.9232 2.51743 19.2137 6.17841 11.8899C9.98375 4.28104 15.1458 0.0888672 20.7168 0.0888672V2.68005C16.1785 2.68005 11.8383 6.36139 8.49567 13.0485C5.01052 20.0206 3.09119 29.3175 3.09119 39.2287C3.09119 49.14 5.01052 58.4369 8.49567 65.409C11.8383 72.0943 16.1785 75.7774 20.7168 75.7774V78.3686Z" fill="#9C7623"/>
</g>
</g>
</g>
</g>
</svg>
