<svg width="37" height="37" viewBox="0 0 37 37" fill="none" xmlns="http://www.w3.org/2000/svg">
<g id="Group">
<path id="Vector" d="M18.5 3.70234C23.3094 3.70234 23.8789 3.72344 25.7703 3.80781C27.5281 3.88516 28.4773 4.18047 29.1102 4.42656C29.9469 4.75 30.5516 5.14375 31.1773 5.76953C31.8102 6.40234 32.1969 7 32.5203 7.83672C32.7664 8.46953 33.0617 9.42578 33.1391 11.1766C33.2234 13.075 33.2445 13.6445 33.2445 18.4469C33.2445 23.2562 33.2234 23.8258 33.1391 25.7172C33.0617 27.475 32.7664 28.4242 32.5203 29.057C32.1969 29.8937 31.8031 30.4984 31.1773 31.1242C30.5445 31.757 29.9469 32.1437 29.1102 32.4672C28.4773 32.7133 27.5211 33.0086 25.7703 33.0859C23.8719 33.1703 23.3023 33.1914 18.5 33.1914C13.6906 33.1914 13.1211 33.1703 11.2297 33.0859C9.47188 33.0086 8.52266 32.7133 7.88984 32.4672C7.05313 32.1437 6.44844 31.75 5.82266 31.1242C5.18984 30.4914 4.80312 29.8937 4.47969 29.057C4.23359 28.4242 3.93828 27.468 3.86094 25.7172C3.77656 23.8188 3.75547 23.2492 3.75547 18.4469C3.75547 13.6375 3.77656 13.068 3.86094 11.1766C3.93828 9.41875 4.23359 8.46953 4.47969 7.83672C4.80312 7 5.19688 6.39531 5.82266 5.76953C6.45547 5.13672 7.05313 4.75 7.88984 4.42656C8.52266 4.18047 9.47891 3.88516 11.2297 3.80781C13.1211 3.72344 13.6906 3.70234 18.5 3.70234ZM18.5 0.460938C13.6133 0.460938 13.0016 0.482031 11.082 0.566406C9.16953 0.650781 7.85469 0.960156 6.71563 1.40312C5.52734 1.86719 4.52188 2.47891 3.52344 3.48437C2.51797 4.48281 1.90625 5.48828 1.44219 6.66953C0.999219 7.81562 0.689844 9.12344 0.605469 11.0359C0.521094 12.9625 0.5 13.5742 0.5 18.4609C0.5 23.3477 0.521094 23.9594 0.605469 25.8789C0.689844 27.7914 0.999219 29.1062 1.44219 30.2453C1.90625 31.4336 2.51797 32.4391 3.52344 33.4375C4.52188 34.4359 5.52734 35.0547 6.70859 35.5117C7.85469 35.9547 9.1625 36.2641 11.075 36.3484C12.9945 36.4328 13.6062 36.4539 18.493 36.4539C23.3797 36.4539 23.9914 36.4328 25.9109 36.3484C27.8234 36.2641 29.1383 35.9547 30.2773 35.5117C31.4586 35.0547 32.4641 34.4359 33.4625 33.4375C34.4609 32.4391 35.0797 31.4336 35.5367 30.2523C35.9797 29.1063 36.2891 27.7984 36.3734 25.8859C36.4578 23.9664 36.4789 23.3547 36.4789 18.468C36.4789 13.5813 36.4578 12.9695 36.3734 11.05C36.2891 9.1375 35.9797 7.82266 35.5367 6.68359C35.0938 5.48828 34.482 4.48281 33.4766 3.48437C32.4781 2.48594 31.4727 1.86719 30.2914 1.41016C29.1453 0.967187 27.8375 0.657812 25.925 0.573437C23.9984 0.482031 23.3867 0.460938 18.5 0.460938Z" fill="white"/>
<path id="Vector_2" d="M18.5 9.21484C13.3953 9.21484 9.25391 13.3563 9.25391 18.4609C9.25391 23.5656 13.3953 27.707 18.5 27.707C23.6047 27.707 27.7461 23.5656 27.7461 18.4609C27.7461 13.3563 23.6047 9.21484 18.5 9.21484ZM18.5 24.4586C15.1883 24.4586 12.5023 21.7727 12.5023 18.4609C12.5023 15.1492 15.1883 12.4633 18.5 12.4633C21.8117 12.4633 24.4977 15.1492 24.4977 18.4609C24.4977 21.7727 21.8117 24.4586 18.5 24.4586Z" fill="white"/>
<path id="Vector_3" d="M30.2703 8.84903C30.2703 10.0443 29.3 11.0076 28.1117 11.0076C26.9164 11.0076 25.9531 10.0373 25.9531 8.84903C25.9531 7.65371 26.9234 6.69043 28.1117 6.69043C29.3 6.69043 30.2703 7.66074 30.2703 8.84903Z" fill="white"/>
</g>
</svg>
