<svg width="32" height="33" viewBox="0 0 32 33" fill="none" xmlns="http://www.w3.org/2000/svg">
<path opacity="0.4" fill-rule="evenodd" clip-rule="evenodd" d="M5.18897 5.64942C3.33398 7.50442 3.33398 10.49 3.33398 16.4611C3.33398 22.4322 3.33398 25.4178 5.18897 27.2728C7.04397 29.1278 10.0295 29.1278 16.0007 29.1278C21.9717 29.1278 24.9573 29.1278 26.8124 27.2728C28.6673 25.4178 28.6673 22.4322 28.6673 16.4611C28.6673 10.49 28.6673 7.50442 26.8124 5.64942C24.9573 3.79443 21.9717 3.79443 16.0007 3.79443C10.0295 3.79443 7.04397 3.79443 5.18897 5.64942ZM16.0007 22.4611C19.3144 22.4611 22.0007 19.7748 22.0007 16.4611C22.0007 13.1474 19.3144 10.4611 16.0007 10.4611C12.6869 10.4611 10.0007 13.1474 10.0007 16.4611C10.0007 19.7748 12.6869 22.4611 16.0007 22.4611Z" fill="white"/>
<path d="M3.33398 16.4611C3.33398 10.49 3.33398 7.50442 5.18897 5.64942C7.04397 3.79443 10.0295 3.79443 16.0007 3.79443C21.9717 3.79443 24.9573 3.79443 26.8124 5.64942C28.6673 7.50442 28.6673 10.49 28.6673 16.4611C28.6673 22.4322 28.6673 25.4178 26.8124 27.2728C24.9573 29.1278 21.9717 29.1278 16.0007 29.1278C10.0295 29.1278 7.04397 29.1278 5.18897 27.2728C3.33398 25.4178 3.33398 22.4322 3.33398 16.4611Z" stroke="white" stroke-width="2.5" stroke-linejoin="round"/>
<path d="M22 16.4609C22 19.7747 19.3137 22.4609 16 22.4609C12.6863 22.4609 10 19.7747 10 16.4609C10 13.1472 12.6863 10.4609 16 10.4609C19.3137 10.4609 22 13.1472 22 16.4609Z" fill="#D9D9D9" fill-opacity="0.4" stroke="white" stroke-width="2.5"/>
<path d="M23.344 9.12744H23.332" stroke="white" stroke-width="2.5" stroke-linecap="round" stroke-linejoin="round"/>
</svg>
