<svg width="49" height="48" viewBox="0 0 49 48" fill="none" xmlns="http://www.w3.org/2000/svg">
<path d="M18.5 4L12.5 12" stroke="#3C3628" stroke-width="3" stroke-linecap="round" stroke-linejoin="round"/>
<path d="M30.5 4L36.5 12" stroke="#3C3628" stroke-width="3" stroke-linecap="round" stroke-linejoin="round"/>
<path d="M5.67365 20H43.3263M36.5703 12L12.4297 12C7.40806 12 3.65188 16.6525 4.66624 21.616L7.93608 37.616C8.69574 41.3332 11.9388 44 15.6996 44H33.3005C37.0612 44 40.3043 41.3331 41.0639 37.616L44.3338 21.616C45.3481 16.6525 41.5919 12 36.5703 12Z" stroke="#3C3628" stroke-width="3" stroke-linecap="round" stroke-linejoin="round"/>
<path d="M25.0307 27.4697L24.5003 28L23.97 27.4697C22.5055 26.0052 20.1312 26.0052 18.6667 27.4697C17.2022 28.9342 17.2022 31.3085 18.6667 32.773L22.379 36.4853C23.5506 37.6569 25.4501 37.6569 26.6217 36.4853L30.334 32.773C31.7984 31.3085 31.7984 28.9342 30.334 27.4697C28.8695 26.0052 26.4951 26.0052 25.0307 27.4697Z" stroke="#B1AFA9" stroke-width="3" stroke-linejoin="round"/>
</svg>
