<svg width="33" height="34" viewBox="0 0 33 34" fill="none" xmlns="http://www.w3.org/2000/svg">
<path opacity="0.4" fill-rule="evenodd" clip-rule="evenodd" d="M23.5859 28.4519C21.3745 28.9026 18.9883 29.1484 16.5 29.1484C14.0117 29.1484 11.6255 28.9026 9.41402 28.4519C6.65178 27.8888 5.27066 27.6072 4.01032 25.9868C2.75 24.3663 2.75 22.5062 2.75 18.7858V16.1361C2.75 12.4157 2.75 10.5555 4.01032 8.93507C5.27066 7.31465 6.65178 7.03312 9.41402 6.47004C11.6255 6.01925 14.0117 5.77344 16.5 5.77344C18.9883 5.77344 21.3745 6.01925 23.5859 6.47004C26.3482 7.03312 27.7294 7.31465 28.9897 8.93507C30.25 10.5555 30.25 12.4157 30.25 16.1361V18.7858C30.25 22.5062 30.25 24.3663 28.9897 25.9868C27.7294 27.6072 26.3482 27.8888 23.5859 28.4519ZM18.4867 20.5191C20.6581 19.3224 21.7438 18.7241 21.9479 17.8912C22.0173 17.6076 22.0173 17.3142 21.9479 17.0307C21.7438 16.1977 20.6581 15.5995 18.4867 14.4028C16.1249 13.1014 14.944 12.4507 13.9876 12.7014C13.6637 12.7863 13.3653 12.9356 13.1147 13.1382C12.375 13.7362 12.375 14.9778 12.375 17.4609C12.375 19.944 12.375 21.1857 13.1147 21.7837C13.3653 21.9862 13.6637 22.1355 13.9876 22.2205C14.944 22.4712 16.1249 21.8204 18.4867 20.5191Z" fill="white"/>
<path d="M16.5 29.1484C18.9883 29.1484 21.3745 28.9026 23.5859 28.4519C26.3482 27.8888 27.7294 27.6072 28.9897 25.9868C30.25 24.3663 30.25 22.5062 30.25 18.7858V16.1361C30.25 12.4157 30.25 10.5555 28.9897 8.93507C27.7294 7.31465 26.3482 7.03312 23.5859 6.47004C21.3745 6.01925 18.9883 5.77344 16.5 5.77344C14.0117 5.77344 11.6255 6.01925 9.41402 6.47004C6.65178 7.03312 5.27066 7.31465 4.01032 8.93507C2.75 10.5555 2.75 12.4157 2.75 16.1361V18.7858C2.75 22.5062 2.75 24.3663 4.01032 25.9868C5.27066 27.6072 6.65178 27.8888 9.41402 28.4519C11.6255 28.9026 14.0117 29.1484 16.5 29.1484Z" stroke="white" stroke-width="2.5"/>
<path d="M21.9479 17.8912C21.7438 18.7241 20.6581 19.3224 18.4867 20.5191C16.1249 21.8204 14.9441 22.4712 13.9876 22.2205C13.6637 22.1355 13.3653 21.9862 13.1147 21.7837C12.375 21.1857 12.375 19.944 12.375 17.4609C12.375 14.9778 12.375 13.7362 13.1147 13.1382C13.3653 12.9356 13.6637 12.7863 13.9876 12.7014C14.9441 12.4507 16.1249 13.1014 18.4867 14.4028C20.6581 15.5995 21.7438 16.1977 21.9479 17.0307C22.0173 17.3142 22.0173 17.6076 21.9479 17.8912Z" fill="#D9D9D9" fill-opacity="0.4" stroke="white" stroke-width="2.5"/>
</svg>
