<?xml version="1.0" encoding="iso-8859-1"?>
<!-- Generator: Adobe Illustrator 24.2.0, SVG Export Plug-In . SVG Version: 6.00 Build 0)  -->
<svg version="1.1" id="Layer_1" xmlns="http://www.w3.org/2000/svg" xmlns:xlink="http://www.w3.org/1999/xlink" x="0px" y="0px"
	 viewBox="0 0 90 50" style="enable-background:new 0 0 90 50;" xml:space="preserve">
<g>
	<path style="fill-rule:evenodd;clip-rule:evenodd;" d="M14.773,26.824l2.075,1.188c-1.037,1.907-3.062,3.146-5.354,3.146
		c-3.347,0-6.107-2.56-6.107-6.158s2.761-6.158,6.107-6.158c2.292,0,4.317,1.238,5.354,3.146l-2.075,1.188
		c-0.603-1.238-1.824-1.991-3.279-1.991c-2.092,0-3.681,1.556-3.681,3.815s1.589,3.815,3.681,3.815
		C12.95,28.815,14.171,28.062,14.773,26.824 M27.975,30.856v-5.02h-5.856v5.02h-2.342V19.144h2.342v4.351h5.856v-4.351h2.343v11.713
		H27.975 M41.562,26.004l-2.125-4.936l-2.125,4.936H41.562z M46.213,30.856h-2.56l-1.154-2.678h-6.124l-1.154,2.678h-2.56
		l5.187-11.713h3.179L46.213,30.856z M57.006,30.856l-6.275-9.219v9.219h-2.175V19.144h3.096l5.271,7.764v-7.764h2.175v11.713
		H57.006 M63.615,30.856V19.144h8.366v2.175H65.79v2.51h5.354v2.175H65.79v2.678h6.526v2.175H63.615 M76.081,30.856V19.144h2.342
		v9.371h6.191v2.342H76.081"/>
</g>
</svg>
