<?xml version="1.0" encoding="iso-8859-1"?>
<!-- Generator: Adobe Illustrator 24.2.0, SVG Export Plug-In . SVG Version: 6.00 Build 0)  -->
<svg version="1.1" id="Layer_1" xmlns="http://www.w3.org/2000/svg" xmlns:xlink="http://www.w3.org/1999/xlink" x="0px" y="0px"
	 viewBox="0 0 90 50" style="enable-background:new 0 0 90 50;" xml:space="preserve">
<path style="fill-rule:evenodd;clip-rule:evenodd;fill:#231F20;" d="M3.467,21.216h1.109h0.075h1.525
	c1.917,0.017,3.484,1.709,3.484,3.776c0,2.075-1.567,3.767-3.484,3.784H4.651l0,0H4.509H3.467V21.216L3.467,21.216z M4.651,22.133
	v5.751h1.217c1.75-0.05,2.617-1.409,2.617-2.859c0-1.442-0.884-2.617-2.309-2.859L4.651,22.133L4.651,22.133z M14.219,21.041
	c2.301,0,4.176,1.784,4.176,3.959c0,2.175-1.875,3.951-4.176,3.951c-2.292,0-4.167-1.775-4.167-3.951
	C10.052,22.825,11.927,21.041,14.219,21.041L14.219,21.041z M14.236,21.999c1.667,0,3.026,1.342,3.026,2.992
	c0,1.642-1.359,2.984-3.026,2.984s-3.034-1.342-3.034-2.984C11.202,23.341,12.569,21.999,14.236,21.999L14.236,21.999z
	 M18.72,21.233h1.117V27.9h2.134v0.867h-2.134h-0.508H18.72V21.233L18.72,21.233z M25.596,20.999c0.867,0,1.675,0.258,2.342,0.692
	v1.375c-0.558-0.667-1.392-1.1-2.334-1.1c-1.667,0-3.026,1.359-3.026,3.026c0,1.659,1.359,3.017,3.026,3.017
	c0.942,0,1.775-0.433,2.334-1.1v1.392c-0.667,0.442-1.475,0.7-2.342,0.7c-2.3,0-4.176-1.8-4.176-4.001
	C21.421,22.8,23.296,20.999,25.596,20.999L25.596,20.999z M29.464,27.876h2.7v0.892h-2.7h-1.175v-0.892v-2.634v-0.917v-2.242v-0.85
	h1.175h2.7v0.85h-2.7v2.242h2.7v0.917h-2.7V27.876L29.464,27.876z M36.415,28.292c-0.117,0.108-0.25,0.208-0.417,0.283
	c-0.158,0.083-0.317,0.142-0.492,0.167c-0.042,0.008-0.083,0.017-0.125,0.017c-0.042,0.008-0.083,0.008-0.125,0.008
	c-0.117,0-0.233-0.017-0.35-0.042c-0.108-0.033-0.217-0.083-0.317-0.158c-0.108-0.083-0.192-0.192-0.258-0.325
	c-0.075-0.125-0.117-0.258-0.133-0.4c0-0.017,0-0.033,0-0.05c-0.008-0.025-0.008-0.042-0.008-0.058c0-0.017,0-0.025,0.008-0.042
	c0-0.017,0-0.033,0-0.05c0,0,0-0.008,0-0.017c0.008-0.008,0.008-0.008,0.008-0.017c0-0.008,0-0.017,0-0.033c0-0.008,0-0.017,0-0.025
	c0.05-0.233,0.158-0.417,0.325-0.567c0.158-0.15,0.333-0.283,0.517-0.392c-0.1-0.117-0.192-0.242-0.275-0.367
	c-0.083-0.117-0.125-0.258-0.125-0.4c0-0.025,0-0.042,0-0.067c0.008-0.017,0.008-0.033,0.008-0.058c0.008,0,0.008-0.008,0.008-0.017
	v-0.008c0.008-0.017,0.008-0.025,0.008-0.033c0-0.008,0.008-0.017,0.008-0.025c0.042-0.183,0.133-0.325,0.283-0.425
	c0.142-0.092,0.3-0.15,0.467-0.158c0.008,0,0.008,0,0.017,0c0.008,0,0.017,0,0.025,0c0.017,0,0.025,0,0.033,0
	c0.008,0,0.025,0,0.033,0c0.2,0.017,0.392,0.092,0.558,0.225c0.167,0.125,0.25,0.308,0.25,0.55c0,0.225-0.075,0.408-0.208,0.542
	c-0.133,0.142-0.292,0.267-0.459,0.383l0.8,0.967c0.075-0.092,0.158-0.183,0.233-0.275c0.067-0.092,0.142-0.192,0.2-0.292
	l0.275,0.283c-0.05,0.092-0.108,0.183-0.175,0.258c-0.058,0.075-0.125,0.158-0.192,0.233c-0.017,0.017-0.033,0.033-0.05,0.05
	c-0.017,0.017-0.033,0.033-0.05,0.05l0.583,0.708H36.79L36.415,28.292L36.415,28.292z M35.407,28.401
	c0.142-0.017,0.275-0.058,0.392-0.133c0.117-0.075,0.225-0.158,0.333-0.25c0.008,0,0.017-0.008,0.025-0.017
	c0.008,0,0.017-0.008,0.025-0.017L35.273,26.9c-0.008,0-0.008,0.008-0.017,0.017c-0.008,0-0.017,0.008-0.025,0.017
	c-0.017,0.008-0.025,0.017-0.042,0.025c-0.008,0-0.017,0.008-0.025,0.017c-0.075,0.05-0.142,0.1-0.208,0.15
	c-0.067,0.05-0.125,0.117-0.175,0.183c-0.017,0.033-0.042,0.067-0.058,0.108c-0.017,0.033-0.033,0.075-0.042,0.117
	c-0.008,0.033-0.017,0.067-0.025,0.1c-0.008,0.033-0.008,0.067-0.008,0.1c0,0.175,0.067,0.333,0.2,0.475
	c0.125,0.133,0.292,0.208,0.492,0.208c0,0,0.008,0,0.008-0.008c0.008,0,0.017,0,0.025,0h0.008c0.008,0,0.008-0.008,0.017-0.008
	H35.407L35.407,28.401z M35.073,25.758v0.008c0,0.008,0,0.017,0,0.017c0,0.008-0.008,0.017-0.008,0.025c0,0,0,0.008,0,0.017
	c0,0.092,0.025,0.175,0.075,0.25c0.05,0.083,0.108,0.158,0.175,0.225c0.017,0.025,0.042,0.05,0.058,0.075
	c0.017,0.025,0.042,0.042,0.058,0.067c0.017-0.008,0.025-0.017,0.042-0.025c0.008-0.008,0.025-0.017,0.042-0.017
	c0.1-0.058,0.183-0.125,0.267-0.2c0.083-0.075,0.133-0.167,0.15-0.283c0-0.008,0-0.017,0-0.025c0-0.008,0-0.017,0-0.025
	c0-0.008,0.008-0.017,0.008-0.025c0-0.008,0-0.017,0-0.017c0-0.117-0.042-0.217-0.125-0.283c-0.083-0.075-0.175-0.117-0.275-0.125
	c-0.008,0-0.017,0-0.025,0c-0.008,0-0.017,0-0.025,0h-0.008c-0.008,0-0.008,0-0.017,0c-0.083,0-0.167,0.033-0.242,0.083
	C35.14,25.558,35.09,25.642,35.073,25.758L35.073,25.758z M43.391,20.966c1.5,0,2.825,0.767,3.567,1.909l-0.975,0.5
	c-0.542-0.858-1.5-1.425-2.584-1.425c-1.684-0.008-3.051,1.358-3.051,3.042c0,1.675,1.367,3.042,3.051,3.042
	c1.417,0,2.534-0.708,2.617-2.184h-2.434v-0.892h2.375c0-0.017,1.209,0,1.284,0c0,0.008,0-2.317,0,0.042
	c0,2.359-1.284,4.034-3.851,4.034c-2.576,0-4.209-1.817-4.209-4.034C39.182,22.783,41.074,20.966,43.391,20.966L43.391,20.966z
	 M46.609,28.767l3.117-7.56h0.742l3.142,7.56h-1.225l-0.867-2.134h-2.859l-0.85,2.134H46.609L46.609,28.767z M49.092,25.675
	l1.008-2.684l1.025,2.684H49.092L49.092,25.675z M64.562,28.767l3.117-7.56h0.742l3.142,7.56h-1.225l-0.867-2.134h-2.859
	l-0.85,2.134H64.562L64.562,28.767z M67.054,25.675l1-2.684l1.025,2.684H67.054L67.054,25.675z M79.531,28.767l3.117-7.56h0.742
	l3.142,7.56h-1.225l-0.867-2.134h-2.859l-0.85,2.134H79.531L79.531,28.767z M82.015,25.675l1.008-2.684l1.025,2.684H82.015
	L82.015,25.675z M56.31,22.091c0.742,0.083,1.017,0.4,1.017,1.142c0.008,0.742-0.5,1.134-1.15,1.134h-0.984v-2.284h1.117V22.091
	L56.31,22.091z M56.369,25.283c0.017,0,0.042,0,0.058,0c0.55,0,1.534,0.125,1.534,1.35c0,0.984-0.858,1.267-1.675,1.259l0.2,0.008
	h-1.292v-2.617h0.984H56.369L56.369,25.283L56.369,25.283z M54.919,28.767h0.275h1.667h0.008l0,0c1.334,0,2.292-0.875,2.292-2.134
	c0-0.967-0.6-1.709-1.45-2c0.483-0.308,0.759-0.858,0.759-1.559c0-1.142-0.767-1.842-1.9-1.867c-0.617-0.008-1.242,0-1.867,0
	c-0.008,0-0.025,0-0.033,0c-0.008,0-0.017,0-0.025,0c-0.017,0-0.025,0-0.033,0h-0.592v7.56H54.919L54.919,28.767z M62.036,22.091
	c0.742,0.083,1.017,0.4,1.025,1.142c0.008,0.742-0.5,1.134-1.15,1.134h-0.984v-2.284h1.109V22.091L62.036,22.091z M62.103,25.283
	c0.017,0,0.033,0,0.058,0c0.542,0,1.534,0.125,1.534,1.35c0,0.984-0.867,1.267-1.675,1.259l0.192,0.008h-1.284v-2.617h0.984H62.103
	L62.103,25.283L62.103,25.283z M60.653,28.767h0.275h1.667h0.008l0,0c1.325,0,2.292-0.875,2.292-2.134c0-0.967-0.608-1.709-1.459-2
	c0.492-0.308,0.759-0.858,0.759-1.559c0-1.142-0.767-1.842-1.892-1.867c-0.625-0.008-1.25,0-1.875,0c-0.008,0-0.017,0-0.025,0
	c-0.008,0-0.025,0-0.033,0c-0.008,0-0.017,0-0.033,0h-0.583v7.56H60.653L60.653,28.767z M72.063,21.233h0.717l5.293,5.593v-5.593
	h1.025v7.535h-0.783l-5.184-5.534v5.534h-1.067V21.233L72.063,21.233z"/>
</svg>
