<?xml version="1.0" encoding="iso-8859-1"?>
<!-- Generator: Adobe Illustrator 24.2.0, SVG Export Plug-In . SVG Version: 6.00 Build 0)  -->
<svg version="1.1" id="Layer_1" xmlns="http://www.w3.org/2000/svg" xmlns:xlink="http://www.w3.org/1999/xlink" x="0px" y="0px"
	 viewBox="0 0 90 50" style="enable-background:new 0 0 90 50;" xml:space="preserve">
<g>
	<path style="fill-rule:evenodd;clip-rule:evenodd;fill:#231F20;" d="M72.684,18.413h6.742v1.074c-0.196-0.065-0.402-0.1-0.608-0.1
		h-3.876v5.02h3.77c0.271,0,0.512-0.03,0.713-0.08v1.069c-0.171-0.04-0.407-0.06-0.698-0.06h-3.785v5.191h3.76
		c0.206,0,0.452-0.03,0.723-0.095v1.155h-6.732c0.05-0.191,0.08-0.397,0.08-0.622V19.051C72.774,18.79,72.744,18.574,72.684,18.413
		L72.684,18.413z"/>
	<path style="fill-rule:evenodd;clip-rule:evenodd;fill:#231F20;" d="M71.123,21.832l-1.948-0.015
		c-0.095-1.094-0.723-2.154-2.104-2.349c-2.957-0.266-3.79,2.982-3.715,5.357c0.075,2.289,0.442,5.808,3.494,5.808
		c1.28,0,2.51-1.315,2.47-2.425l1.802-0.015c-0.131,2.289-2.756,3.615-4.006,3.66c-4.272,0.146-6.059-2.701-6.15-6.762
		c-0.08-3.68,1.426-6.948,5.648-6.948C70.229,18.192,70.927,20.331,71.123,21.832L71.123,21.832z"/>
	<path style="fill-rule:evenodd;clip-rule:evenodd;fill:#231F20;" d="M40.74,30.09l1.29-1.079c0.673,1.109,1.225,1.616,2.56,1.616
		c1.356,0,2.495-0.823,2.495-2.279c0-0.718-0.291-1.305-0.869-1.747c-0.261-0.206-0.924-0.562-1.968-1.059
		c-1.561-0.748-3.082-1.722-3.082-3.68c0-2.47,2.099-3.559,4.312-3.64c1.31-0.05,2.937,0.673,3.594,1.486l-1.31,1.009
		c-0.572-1.044-1.581-1.446-2.41-1.446c-1.672,0-2.997,1.938-1.612,3.273c0.351,0.341,1.069,0.763,2.164,1.265
		c1.747,0.818,3.238,1.797,3.238,3.961c0,0.748-0.196,1.446-0.582,2.083c-0.778,1.285-2.078,1.928-3.896,1.928
		C42.578,31.782,42.166,31.305,40.74,30.09L40.74,30.09z"/>
	<path style="fill-rule:evenodd;clip-rule:evenodd;fill:#231F20;" d="M22.356,18.413h6.737v1.074c-0.196-0.065-0.402-0.1-0.607-0.1
		h-3.876v5.02h3.77c0.271,0,0.512-0.03,0.713-0.08v1.069c-0.171-0.04-0.407-0.06-0.693-0.06h-3.79v5.191h3.76
		c0.206,0,0.452-0.03,0.723-0.095v1.155h-6.727c0.045-0.191,0.075-0.397,0.075-0.622V19.051
		C22.442,18.79,22.412,18.574,22.356,18.413L22.356,18.413z"/>
	<path style="fill-rule:evenodd;clip-rule:evenodd;fill:#231F20;" d="M10.574,18.413h2.45c0,0.045,0,0.09,0,0.12
		c0,0.11,0.035,0.256,0.095,0.442l3.454,10.397l3.544-10.442c0.055-0.176,0.085-0.346,0.085-0.517h1.19
		c-0.12,0.211-0.211,0.397-0.266,0.562L17.08,31.049c-0.04,0.115-0.075,0.296-0.105,0.537h-2.008
		c-0.025-0.161-0.07-0.341-0.136-0.537l-3.966-11.978c-0.045-0.11-0.141-0.336-0.286-0.658H10.574L10.574,18.413z"/>
	<path style="fill-rule:evenodd;clip-rule:evenodd;fill:#231F20;" d="M36.594,25.281c1.606-0.316,2.836-1.546,2.836-3.303
		c0-2.304-1.928-3.564-4.086-3.564h-3.946c0.055,0.201,0.085,0.412,0.085,0.633v11.908c0,0.256-0.03,0.472-0.085,0.633h2.349
		c-0.055-0.196-0.085-0.407-0.085-0.633v-5.472l0.753,0.08l3.936,6.024h2.365L36.594,25.281L36.594,25.281z M36.187,24.277
		c-0.427,0.301-0.939,0.452-1.526,0.452h-1.004v-5.356h0.899c0.768,0,1.365,0.191,1.792,0.572c0.582,0.527,0.879,1.24,0.879,2.134
		C37.226,23.042,36.88,23.775,36.187,24.277L36.187,24.277z"/>
	<path style="fill-rule:evenodd;clip-rule:evenodd;fill:#231F20;" d="M60.575,31.039L56.188,18.85
		c-0.05-0.151-0.08-0.301-0.085-0.437h-1.898c0,0.156-0.025,0.321-0.085,0.487l-4.252,12.139c-0.055,0.175-0.146,0.356-0.266,0.547
		h1.225c-0.005-0.201,0.02-0.387,0.075-0.547l1.26-3.579h4.845l1.245,3.579c0.065,0.196,0.095,0.376,0.095,0.547h2.54
		C60.741,31.381,60.635,31.195,60.575,31.039L60.575,31.039z M52.493,26.491l2.048-5.949l2.104,5.949H52.493L52.493,26.491z"/>
</g>
</svg>
