<svg width="92" height="50" viewBox="0 0 92 50" fill="none" xmlns="http://www.w3.org/2000/svg">
<g id="Diesel svg" clip-path="url(#clip0_240_671)">
<g id="Group">
<g id="Mask group">
<mask id="mask0_240_671" style="mask-type:luminance" maskUnits="userSpaceOnUse" x="0" y="0" width="92" height="50">
<g id="Group_2">
<path id="Vector" d="M0.275391 0H91.1845V50H0.275391V0Z" fill="#E4002B"/>
</g>
</mask>
<g mask="url(#mask0_240_671)">
<path id="Vector_2" fill-rule="evenodd" clip-rule="evenodd" d="M0.275391 50H91.1845V0H0.275391V50Z" fill="#CFD2D8"/>
</g>
</g>
<path id="Vector_3" fill-rule="evenodd" clip-rule="evenodd" d="M9.01479 41.5833H7.33449V42.154H8.42186V42.7924H7.33449V43.9475H6.33449V40.9207H9.01479V41.5833ZM11.9097 43.9879C10.9618 43.9879 10.1618 43.3732 10.1658 42.3995C10.1537 41.3606 10.9698 40.8788 11.9097 40.8788C12.8567 40.8788 13.6037 41.4737 13.6077 42.4076C13.6113 43.3666 12.8567 43.9879 11.9097 43.9879ZM12.4158 42.0404C12.3966 41.7803 12.1734 41.4904 11.8835 41.4904C11.5804 41.4904 11.3845 41.7757 11.3557 42.0404C11.339 42.199 11.3047 42.6065 11.3507 42.8636C11.4001 43.1656 11.6032 43.401 11.8835 43.401C12.1582 43.401 12.3507 43.1656 12.3966 42.856C12.4304 42.6439 12.4254 42.2222 12.4158 42.0404ZM15.9926 42.8106V43.948H14.9875V40.9197H17.1517C17.789 40.9197 18.1102 41.3005 18.1284 41.8237C18.1441 42.2444 17.8875 42.6298 17.5092 42.7631L18.0951 43.948H17.0042L16.5128 42.8106H15.9926ZM15.9926 42.1732H16.7133C16.89 42.1732 17.0294 42.0303 17.0294 41.855C17.0288 41.7714 16.9952 41.6914 16.9361 41.6324C16.8769 41.5733 16.7969 41.5399 16.7133 41.5394H15.9931L15.9926 42.1732ZM22.0481 41.7767C22.0481 41.8525 22.1512 41.9025 22.2264 41.9121C22.5047 41.9545 22.5163 41.9459 22.8714 42.0005C23.3279 42.0631 23.682 42.2631 23.8749 42.6762C23.9774 42.8909 23.9618 43.1954 23.8072 43.4409C23.5092 43.9096 22.8512 43.9732 22.5805 43.9858C22.1875 44.0045 21.2597 43.954 20.8668 43.3252L21.3501 42.955C21.4183 43.0106 21.5239 43.1055 21.5926 43.1505C21.9385 43.4151 22.4486 43.402 22.6936 43.3318C22.7613 43.3126 22.8416 43.2631 22.8592 43.2257C22.9133 43.1449 22.883 43.0187 22.7703 43.0005C22.5582 42.955 22.437 42.9666 21.9547 42.8076C21.6597 42.7207 21.2779 42.5778 21.09 42.1879C21.0334 42.0671 21.0053 41.935 21.0077 41.8016C21.0102 41.6683 21.0432 41.5373 21.1042 41.4187C21.289 41.0641 21.8219 40.9353 22.0481 40.9025C22.6027 40.8303 23.2446 40.9207 23.7916 41.4187L23.2931 41.7959C22.9547 41.5454 22.4532 41.5242 22.1693 41.6343C22.0986 41.6677 22.0481 41.701 22.0481 41.7767ZM26.8229 43.2565C27.2158 43.2565 27.4032 43.1101 27.4032 42.8555V40.9197H28.1815V42.9778C28.1815 43.6318 27.8269 43.9884 26.8102 43.9884H26.6153C25.6001 43.9884 25.2451 43.6267 25.2451 42.9778V40.9192H26.2527V42.8631C26.2527 43.0969 26.4264 43.2565 26.8229 43.2565ZM32.7153 42.9207C32.6315 43.4101 32.1875 43.7954 31.733 43.9207C31.6012 43.9591 31.3264 43.9889 31.0961 43.9889C30.2274 43.9889 29.4729 43.2904 29.4769 42.3959C29.4769 41.5308 30.2325 40.8788 31.088 40.8788C31.3749 40.8788 31.5906 40.9207 31.733 40.9576C32.1875 41.0707 32.5754 41.4101 32.6597 41.902L31.8092 41.9914C31.7986 41.6 31.4436 41.4747 31.19 41.4904C30.839 41.506 30.5749 41.7954 30.5749 42.4111V42.4828C30.5749 43.102 30.839 43.3767 31.1794 43.403C31.5683 43.4267 31.8128 43.3318 31.8815 42.8106L32.7148 42.9207M37.1698 42.9207C37.086 43.4101 36.6421 43.7954 36.188 43.9207C36.0567 43.9591 35.7815 43.9889 35.5501 43.9889C34.6825 43.9889 33.9279 43.2904 33.931 42.3959C33.931 41.5308 34.6865 40.8788 35.5436 40.8788C35.8299 40.8788 36.0456 40.9207 36.188 40.9576C36.6426 41.0707 37.0305 41.4101 37.1138 41.902L36.2628 41.9914C36.2527 41.6 35.8976 41.4747 35.6441 41.4904C35.2941 41.506 35.0299 41.7954 35.0299 42.4111V42.4828C35.0299 43.102 35.2941 43.3767 35.6345 43.403C36.0234 43.4267 36.2668 43.3318 36.3355 42.8106L37.1698 42.9207ZM41.2431 43.948H38.435V40.9207H41.1183V41.5838H39.439V42.1545H40.5224V42.7919H39.439V43.3161H41.2431V43.948ZM43.5491 41.7767C43.5491 41.8525 43.6512 41.9025 43.7264 41.9121C44.0057 41.9545 44.0163 41.9459 44.3724 42.0005C44.8279 42.0631 45.183 42.2631 45.3764 42.6762C45.4779 42.8909 45.4623 43.1954 45.3087 43.4409C45.0097 43.9096 44.3522 43.9732 44.081 43.9858C43.6885 44.0045 42.7597 43.954 42.3678 43.3252L42.8512 42.955C42.9198 43.0106 43.0249 43.1055 43.0926 43.1505C43.4395 43.4151 43.9496 43.402 44.1936 43.3318C44.2623 43.3126 44.3426 43.2631 44.3618 43.2257C44.4138 43.1449 44.384 43.0187 44.2709 43.0005C44.0587 42.955 43.938 42.9666 43.4552 42.8076C43.1602 42.7207 42.7799 42.5778 42.5905 42.1879C42.5346 42.0669 42.5069 41.9348 42.5095 41.8015C42.5121 41.6683 42.545 41.5373 42.6057 41.4187C42.7911 41.0641 43.3224 40.9353 43.5491 40.9025C44.1032 40.8303 44.7461 40.9207 45.2931 41.4187L44.7951 41.7959C44.4557 41.5454 43.9537 41.5242 43.6698 41.6343C43.5991 41.6677 43.5491 41.701 43.5491 41.7767ZM47.7274 41.7767C47.7274 41.8525 47.8284 41.9025 47.9047 41.9121C48.184 41.9545 48.1961 41.9459 48.5496 42.0005C49.0062 42.0631 49.3613 42.2631 49.5547 42.6762C49.6557 42.8909 49.6411 43.1954 49.4865 43.4409C49.188 43.9096 48.5305 43.9732 48.2592 43.9858C47.8668 44.0045 46.9375 43.954 46.5461 43.3252L47.0289 42.955C47.0966 43.0106 47.2032 43.1055 47.2709 43.1505C47.6178 43.4151 48.1269 43.402 48.3719 43.3318C48.4406 43.3126 48.5209 43.2631 48.5385 43.2257C48.5926 43.1449 48.5613 43.0187 48.4491 43.0005C48.237 42.955 48.1163 42.9666 47.6335 42.8076C47.3385 42.7207 46.9582 42.5778 46.7688 42.1879C46.7123 42.067 46.6842 41.9349 46.6868 41.8015C46.6895 41.6681 46.7227 41.5372 46.784 41.4187C46.9678 41.0641 47.5007 40.9353 47.7274 40.9025C48.282 40.8303 48.9239 40.9207 49.4714 41.4187L48.9724 41.7959C48.634 41.5454 48.132 41.5242 47.8481 41.6343C47.7764 41.6677 47.7274 41.701 47.7274 41.7767ZM53.581 41.5833H51.9017V42.154H52.989V42.7924H51.9017V43.9475H50.9012V40.9207H53.581V41.5833ZM56.5062 43.2565C56.8991 43.2565 57.0885 43.1101 57.0885 42.8555V40.9197H57.8653V42.9778C57.8653 43.6318 57.5113 43.9884 56.4941 43.9884H56.3001C55.2845 43.9884 54.9294 43.6267 54.9294 42.9778V40.9192H55.9375V42.8631C55.9375 43.0969 56.1108 43.2565 56.5062 43.2565ZM60.2214 40.9202V43.2833H61.6744V43.9475H59.2133V40.9202H60.2214ZM65.6143 40.9202V43.2833H67.0673V43.9475H64.6057V40.9202H65.6143ZM68.3638 43.9475H69.3683V40.9202H68.3638V43.9475ZM71.5597 40.9202L72.3143 42.8671L73.081 40.9202H73.9577L72.7587 43.9475H71.7219L70.5441 40.9166L71.5597 40.9202ZM75.1956 43.9475H76.2007V40.9202H75.1956V43.9475ZM79.8163 42.5581V40.9197H80.5966V43.948H79.7628L78.3138 42.2106V43.948H77.5401V40.9197H78.4491L79.8163 42.5581ZM83.5577 42.9439V42.3616H85.1224V43.9545H84.7658L84.5158 43.6313C84.2259 43.9015 83.7163 43.9894 83.3507 43.9894C82.4936 43.9894 81.8608 43.2379 81.8608 42.3808C81.8608 41.5111 82.6057 40.8788 83.4739 40.8788C83.7047 40.8788 83.9805 40.9076 84.1123 40.9379C84.5699 41.0596 84.9729 41.3914 85.0572 41.8873L84.2027 41.9783C84.2027 41.6823 83.882 41.4707 83.5698 41.4707C83.2209 41.4707 82.9542 41.6631 82.9542 42.1247V42.7813C82.9542 43.203 83.2633 43.3773 83.6067 43.3773C83.8744 43.3773 84.1613 43.1576 84.1613 42.9702C84.1613 42.95 84.1547 42.9439 84.1315 42.9439H83.5577ZM82.0946 9.08584C82.0946 8.25554 82.7734 7.57877 83.6133 7.57877C84.0131 7.57877 84.3965 7.73741 84.6795 8.01988C84.9624 8.30234 85.1217 8.68554 85.1224 9.08533C85.1224 9.93129 84.4471 10.6101 83.6133 10.6101C83.4133 10.6101 83.2154 10.5706 83.0307 10.4939C82.8461 10.4172 82.6784 10.3048 82.5373 10.1631C82.3962 10.0215 82.2844 9.85333 82.2085 9.66837C82.1325 9.48342 82.0938 9.28578 82.0946 9.08584ZM82.3815 9.08584C82.3802 9.24782 82.4113 9.40843 82.4728 9.55829C82.5343 9.70815 82.625 9.84426 82.7397 9.95868C82.8544 10.0731 82.9907 10.1636 83.1407 10.2248C83.2906 10.286 83.4513 10.3167 83.6133 10.3151C83.7746 10.3157 83.9344 10.2842 84.0834 10.2225C84.2324 10.1608 84.3677 10.0701 84.4814 9.95568C84.5951 9.84127 84.685 9.70542 84.7458 9.55602C84.8065 9.40661 84.837 9.24662 84.8355 9.08533C84.8348 8.92556 84.8026 8.76749 84.7408 8.62016C84.679 8.47282 84.5887 8.33911 84.4752 8.22664C84.3617 8.11418 84.2272 8.02518 84.0793 7.96471C83.9314 7.90424 83.7731 7.87349 83.6133 7.87422C82.9289 7.87422 82.381 8.41665 82.381 9.08533L82.3815 9.08584ZM84.3673 9.93937H84.0789L83.5951 9.15806H83.3002V9.93937H83.0502V8.24392H83.7875C83.9289 8.24392 84.0724 8.25301 84.2001 8.32574C84.3259 8.39847 84.387 8.54948 84.387 8.69089C84.387 9.02523 84.1547 9.15049 83.8542 9.15806L84.3673 9.93937ZM83.5744 8.94847C83.8118 8.94847 84.1385 8.99139 84.1385 8.68584C84.1385 8.46614 83.9492 8.43735 83.737 8.43735H83.3002V8.94847H83.5744ZM6.33398 7.57574H10.9022C19.7153 7.57574 20.5663 13.2374 20.5663 21.9697C20.5663 30.298 19.8769 36.3616 11.7512 36.3616H6.33398V7.57624V7.57574ZM11.59 31.9156C14.9052 31.8752 15.0678 30.6626 15.0678 21.9298C15.0678 13.2374 14.9052 12.0641 11.59 12.0232V31.9156ZM23.0067 36.3631H28.2623V7.57675H23.0067V36.3631ZM31.0805 7.57624H42.9653V12.0232H36.3355V19.3818H41.2274V24.0722H36.3355V31.9166H43.2476V36.3626H31.0805V7.57624ZM48.8628 28.0343C48.8628 29.6525 48.8628 32.4808 51.1269 32.4808C52.8643 32.4808 53.4709 30.8656 53.4709 29.6929C53.4709 24.5565 43.9294 23.3848 43.9294 14.854C43.9294 10.5273 46.2754 7.0116 50.7219 7.0116C55.4512 7.0116 57.2709 10.6091 57.3921 15.7828H52.7027C52.7027 14.1666 52.7027 11.4581 50.6007 11.4581C49.3471 11.4581 48.6198 12.5091 48.6198 14.0863C48.6198 18.9788 58.1592 20.6358 58.1592 29.006C58.1592 33.4116 55.6542 36.9303 50.9234 36.9303C45.3047 36.9303 44.1729 31.9969 44.1729 28.0343H48.8628ZM59.9446 7.57624H71.8305V12.0232H65.2001V19.3818H70.0921V24.0722H65.2001V31.9166H72.1128V36.3626H59.9446V7.57624ZM74.4567 7.57624H79.7138V31.9166H85.1249V36.3626H74.4567V7.57624Z" fill="#FFFFFE"/>
</g>
</g>
<defs>
<clipPath id="clip0_240_671">
<rect width="90.9091" height="50" fill="white" transform="translate(0.275391)"/>
</clipPath>
</defs>
</svg>
